<svg xmlns="http://www.w3.org/2000/svg" viewBox="0 0 30.53 29.79">
  <defs>
    <style>
      .cls-1 {
        fill: none;
        stroke: #fff;
        stroke-miterlimit: 10;
      }
    </style>
  </defs>
  <title>Ресурс 27</title>
  <g id="Слой_2" data-name="Слой 2">
    <g id="Слой_1-2" data-name="Слой 1">
      <path class="cls-1" d="M28.9,22.47a1.38,1.38,0,0,0-.68.19,19.53,19.53,0,0,1-6.09,2.08,7.82,7.82,0,0,1-1,.07A12.11,12.11,0,0,1,18,24.39a2.76,2.76,0,0,1-1.43-.71,7.73,7.73,0,0,1,.93.15,16.45,16.45,0,0,0,2.91.35,5.5,5.5,0,0,0,1.3-.14c.94-.26,1.27-.87,1.26-1.36a1,1,0,0,0-.78-1c-.22-.05-.72-.21-1.37-.42a32,32,0,0,0-6.43-1.62,34.77,34.77,0,0,0-4.59.54H9.7c-.33.05-.67.1-.7.59-.06.81-.13,2-.21,3.25-.1,1.48-.2,3-.26,4.07a.6.6,0,0,0,.14.4.32.32,0,0,0,.25.11.6.6,0,0,0,.39-.17c.66-.56,1.21-.8,1.65-.7a95.34,95.34,0,0,0,10.39,1.56h0a2.69,2.69,0,0,0,.46,0,29.79,29.79,0,0,0,7.49-4.17,1.79,1.79,0,0,0,.64-1.92,1.1,1.1,0,0,0-1-.7Z"/>
      <path class="cls-1" d="M6.81,20.1l-4.5-.23a1,1,0,0,0-1,.71v0L.52,28a.68.68,0,0,0,.11.57.69.69,0,0,0,.53.27h5A.84.84,0,0,0,7,28.1l.54-7.16a.77.77,0,0,0-.74-.84ZM5.22,26.46a1.07,1.07,0,1,1-1.07-1.07,1.08,1.08,0,0,1,1.07,1.07Z"/>
      <path class="cls-1" d="M29.81.7A.7.7,0,0,0,29,.58L23.52,2.83a.73.73,0,0,0-.5.56.76.76,0,0,0,.34.68l1.3,1-4.78,7.19L17.47,9.65A1.57,1.57,0,0,0,15,9.87L11.37,15.5,9.9,14.26a1.82,1.82,0,0,0-2.26,0L4.88,16.37a1.22,1.22,0,0,0,.75,2.18,1.18,1.18,0,0,0,.75-.26l2.34-1.83L10.5,18a1.62,1.62,0,0,0,2.42-.36l3.51-5.47,2.39,2.59a1.57,1.57,0,0,0,1.29.52,1.6,1.6,0,0,0,1.2-.71l5.28-7.94L28,7.65a.87.87,0,0,0,.52.2c.33,0,.58-.26.64-.67L30,1.34A.78.78,0,0,0,29.81.7Z"/>
    </g>
  </g>
</svg>
