<svg xmlns="http://www.w3.org/2000/svg" viewBox="0 0 28.88 28.74">
  <defs>
    <style>
      .cls-1 {
        fill: #66bbff;
      }
    </style>
  </defs>
  <title>Продвижение_1</title>
  <g id="Слой_2" data-name="Слой 2">
    <g id="Layer_1" data-name="Layer 1">
      <path class="cls-1" d="M28.85,5.39a.63.63,0,0,0-.5-.43l-3.73-.59h0L24,.53a.62.62,0,0,0-.42-.5.65.65,0,0,0-.64.15L21.12,2a14.27,14.27,0,1,0,5.75,5.86L28.7,6A.63.63,0,0,0,28.85,5.39Zm-7.06,6.85a8,8,0,0,1,.33,2.25,7.87,7.87,0,1,1-7.87-7.86A8,8,0,0,1,16.71,7l.59,3.71-.78.79a3.71,3.71,0,1,0,.86.92l.77-.78Zm-5.06,2.25A2.48,2.48,0,1,1,14.25,12,2.48,2.48,0,0,1,16.73,14.49ZM23,1.94l.43,2.71-5,5L18,6.93Zm4.29,12.55A13,13,0,1,1,20.19,2.93l-3,2.95a8.94,8.94,0,0,0-3-.51A9.1,9.1,0,1,0,23,11.77l3-3A12.84,12.84,0,0,1,27.25,14.49ZM22,11l-2.7-.43,5-5L26.94,6Z"/>
    </g>
  </g>
</svg>
