<svg xmlns="http://www.w3.org/2000/svg" viewBox="0 0 28.93 28.93">
  <defs>
    <style>
      .cls-1 {
        fill: #fff;
      }
    </style>
  </defs>
  <title>Ресурс 20</title>
  <g id="Слой_2" data-name="Слой 2">
    <g id="Layer_1" data-name="Layer 1">
      <path class="cls-1" d="M14.47,28.93A3.14,3.14,0,0,1,11.33,26a11.35,11.35,0,0,1-2.79-1.16,3.14,3.14,0,0,1-4.3-.14,3.08,3.08,0,0,1-.92-2.22,3.12,3.12,0,0,1,.78-2.08A11.35,11.35,0,0,1,2.94,17.6a3.14,3.14,0,0,1,0-6.27A11.35,11.35,0,0,1,4.1,8.54a3.12,3.12,0,0,1-.78-2.08A3.14,3.14,0,0,1,6.46,3.32a3.12,3.12,0,0,1,2.08.78,11.35,11.35,0,0,1,2.79-1.16,3.14,3.14,0,0,1,6.27,0A11.35,11.35,0,0,1,20.39,4.1a3.12,3.12,0,0,1,2.08-.78,3.08,3.08,0,0,1,2.22.92,3.14,3.14,0,0,1,.14,4.3A11.35,11.35,0,0,1,26,11.33a3.14,3.14,0,0,1,0,6.27,11.35,11.35,0,0,1-1.16,2.79,3.15,3.15,0,0,1-4.44,4.44A11.35,11.35,0,0,1,17.6,26,3.14,3.14,0,0,1,14.47,28.93ZM8.42,23.39a.61.61,0,0,1,.34.1,10.65,10.65,0,0,0,3.36,1.4.63.63,0,0,1,.49.68s0,.07,0,.1a.89.89,0,0,0,0,.11,1.89,1.89,0,1,0,3.77,0,.65.65,0,0,0,0-.11s0-.06,0-.1a.63.63,0,0,1,.49-.68,10.65,10.65,0,0,0,3.36-1.4.65.65,0,0,1,.84.14l0,.07.08.1a1.88,1.88,0,0,0,2.66-2.66l-.1-.08-.07,0a.65.65,0,0,1-.14-.84,10.65,10.65,0,0,0,1.4-3.36.63.63,0,0,1,.68-.49h.1l.11,0a1.89,1.89,0,1,0,0-3.77l-.11,0h-.1a.63.63,0,0,1-.68-.49,10.65,10.65,0,0,0-1.4-3.36.65.65,0,0,1,.14-.84l.07,0,.1-.08a1.88,1.88,0,0,0-2.66-2.66l-.08.1,0,.07a.65.65,0,0,1-.84.14A10.65,10.65,0,0,0,16.81,4a.63.63,0,0,1-.49-.68s0-.07,0-.1a.65.65,0,0,0,0-.11,1.89,1.89,0,1,0-3.77,0,.89.89,0,0,0,0,.11s0,.06,0,.1a.63.63,0,0,1-.49.68,10.65,10.65,0,0,0-3.36,1.4.65.65,0,0,1-.84-.14l0-.07-.08-.1A1.88,1.88,0,0,0,5.13,7.79l.1.08.07,0a.65.65,0,0,1,.14.84A10.65,10.65,0,0,0,4,12.12a.63.63,0,0,1-.68.49h-.1l-.11,0a1.89,1.89,0,1,0,0,3.77l.11,0h.1a.63.63,0,0,1,.68.49,10.65,10.65,0,0,0,1.4,3.36A.65.65,0,0,1,5.3,21l-.07,0-.1.08A1.88,1.88,0,0,0,7.79,23.8l.08-.1,0-.07A.63.63,0,0,1,8.42,23.39Zm6.05-.78a8.15,8.15,0,1,1,8.14-8.15A8.16,8.16,0,0,1,14.47,22.61Zm0-15a6.88,6.88,0,1,0,6.87,6.87A6.88,6.88,0,0,0,14.47,7.59Z"/>
    </g>
  </g>
</svg>
