<svg xmlns="http://www.w3.org/2000/svg" viewBox="0 0 36.97 36.97">
  <defs>
    <style>
      .cls-1 {
        fill: #fff;
      }
    </style>
  </defs>
  <title>Привлечение</title>
  <g id="Слой_2" data-name="Слой 2">
    <g id="Layer_1" data-name="Layer 1">
      <path class="cls-1" d="M18.49,0A18.49,18.49,0,1,0,37,18.49,18.51,18.51,0,0,0,18.49,0Zm0,1.62A16.87,16.87,0,0,1,33.11,26.89a18,18,0,0,0-6.95-3.49,10.4,10.4,0,1,0-15.35,0,18,18,0,0,0-7,3.49A16.87,16.87,0,0,1,18.49,1.62ZM9.71,16.4a8.78,8.78,0,1,1,8.78,8.78A8.78,8.78,0,0,1,9.71,16.4Zm8.78,19A16.87,16.87,0,0,1,4.75,28.27a16.76,16.76,0,0,1,7.48-3.57,10.41,10.41,0,0,0,12.51,0,16.76,16.76,0,0,1,7.48,3.57A16.87,16.87,0,0,1,18.49,35.35Z"/>
    </g>
  </g>
</svg>
