<svg xmlns="http://www.w3.org/2000/svg" viewBox="0 0 28.42 28.93">
  <title>СММ под ключ</title>
  <g id="Слой_2" data-name="Слой 2">
    <g id="Слой_1-2" data-name="Слой 1">
      <g fill="#ffffff">
        <path d="M.17,23.16l11.22-10.7c-1.66-3.58-1.14-7.22,1.42-9.78A9.19,9.19,0,0,1,19.67,0a9.08,9.08,0,0,1,6.62,3.26,9.19,9.19,0,0,1-.58,12.4,8.8,8.8,0,0,1-8.94,2.1l-1.29,1.31a.57.57,0,0,1-.39.16H12.92v1.62a.54.54,0,0,1-.53.54H10.77V23a.54.54,0,0,1-.54.54H8.08V25.7a.54.54,0,0,1-.54.54H6.46v1A1.41,1.41,0,0,1,6,28.42a1.78,1.78,0,0,1-1.16.51H.54A.54.54,0,0,1,0,28.4V23.55a.52.52,0,0,1,.17-.39Zm.91,4.7H4.81a.69.69,0,0,0,.44-.2c.13-.14.13-.14.13-.46V25.7a.54.54,0,0,1,.54-.53H7V23a.54.54,0,0,1,.54-.54H9.69V20.86a.54.54,0,0,1,.54-.54h1.62V18.7a.54.54,0,0,1,.54-.53h2.47l1.37-1.4a.53.53,0,0,1,.56-.13A7.77,7.77,0,0,0,25,14.9,8.11,8.11,0,0,0,25.47,4a8.1,8.1,0,0,0-11.9-.52c-2.34,2.34-2.72,5.58-1,8.9a.53.53,0,0,1-.11.63L1.08,23.78Z"/>
        <path d="M23.85,4.59a3.23,3.23,0,0,1-4.57,4.57,3.23,3.23,0,0,1,4.57-4.57ZM20,8.39a2.2,2.2,0,0,0,3.05,0,2.15,2.15,0,0,0-3.05-3,2.15,2.15,0,0,0,0,3Z"/>
      </g>
    </g>
  </g>
</svg>
