<svg xmlns="http://www.w3.org/2000/svg" viewBox="0 0 24.05 28.75">
  <defs>
    <style>
      .cls-1 {
        fill: #66bbff;
      }
    </style>
  </defs>
  <title>Надёжность</title>
  <g id="Слой_2" data-name="Слой 2">
    <g id="Layer_1" data-name="Layer 1">
      <g>
        <path class="cls-1" d="M24.05,9.16v0a.25.25,0,0,0,0-.08h0S24,9,24,9V9l0-.07h0l0-.07,0,0-.05-.06L15.31.18l-.06,0h0l-.07,0h0l-.07,0h0l-.16,0H2.64A2.64,2.64,0,0,0,0,2.64V26.11a2.64,2.64,0,0,0,2.64,2.64H21.41a2.64,2.64,0,0,0,2.64-2.64v-17Zm-2.14-.6h-4a2.45,2.45,0,0,1-2.45-2.45v-4Zm-.5,18.93H2.64a1.38,1.38,0,0,1-1.38-1.38V2.64A1.38,1.38,0,0,1,2.64,1.26h11.6V6.11a3.7,3.7,0,0,0,3.7,3.7H22.8v16.3A1.39,1.39,0,0,1,21.41,27.49Z"/>
        <path class="cls-1" d="M17.06,11.67H6.5a.63.63,0,0,0,0,1.26H17.06a.63.63,0,0,0,0-1.26Z"/>
        <path class="cls-1" d="M17.06,15.82H6.5a.63.63,0,1,0,0,1.25H17.06a.63.63,0,1,0,0-1.25Z"/>
      </g>
    </g>
  </g>
</svg>
