<svg xmlns="http://www.w3.org/2000/svg" viewBox="0 0 25.12 29.07">
  <defs>
    <style>
      .cls-1 {
        fill: #66bbff;
      }
    </style>
  </defs>
  <title>Ресурс 30</title>
  <g id="Слой_2" data-name="Слой 2">
    <g id="Layer_1" data-name="Layer 1">
      <g>
        <path class="cls-1" d="M12.51,29.07c-1.62,0-5.87-2.13-8.85-5.45A13,13,0,0,1,.07,13.36c.54-4.84.78-7,.88-8A1.6,1.6,0,0,1,2,4L12.39.1a1.65,1.65,0,0,1,1.16,0L23.33,4a1.61,1.61,0,0,1,1,1.37c.06.92.25,3.22.74,8.35h0A13.13,13.13,0,0,1,21.4,23.9C18.23,27.34,14,29.07,12.51,29.07ZM13,1.27l-.12,0L2.43,5.22a.34.34,0,0,0-.22.28c-.1,1-.33,3.16-.87,8a11.89,11.89,0,0,0,3.27,9.27c3,3.32,6.88,5,7.9,5s4.92-1.47,8-4.76a11.78,11.78,0,0,0,3.34-9.19c-.48-5.13-.67-7.44-.74-8.36a.34.34,0,0,0-.21-.29L13.08,1.29Z"/>
        <path class="cls-1" d="M17.42,21.46a.63.63,0,0,1-.37-.12l-4.49-3.27L8.07,21.33a.63.63,0,0,1-1-.71l1.71-5.25L4.33,12.14a.64.64,0,0,1-.24-.71A.63.63,0,0,1,4.7,11h5.54L12,5.71a.63.63,0,0,1,.6-.44.62.62,0,0,1,.6.44L14.88,11h5.54a.63.63,0,0,1,.61.44.64.64,0,0,1-.24.71l-4.48,3.23L18,20.63a.62.62,0,0,1-.23.71A.63.63,0,0,1,17.42,21.46Zm-4.86-4.81a.63.63,0,0,1,.37.12l3.28,2.38L15,15.32a.63.63,0,0,1,.23-.71l3.27-2.35h-4a.65.65,0,0,1-.61-.44L12.56,8l-1.25,3.86a.65.65,0,0,1-.61.44h-4l3.26,2.35a.63.63,0,0,1,.23.71L8.91,19.15l3.28-2.38A.63.63,0,0,1,12.56,16.65Z"/>
      </g>
    </g>
  </g>
</svg>
