<svg xmlns="http://www.w3.org/2000/svg" viewBox="0 0 21.61 28.94">
  <defs>
    <style>
      .cls-1 {
        fill: #66bbff;
      }
    </style>
  </defs>
  <title>Ресурс 50</title>
  <g id="Слой_2" data-name="Слой 2">
    <g id="Слой_1-2" data-name="Слой 1">
      <path class="cls-1" d="M21.61,0H0V1.42H.92c0,4.76-.06,7.11,4.18,11l2.31,2.08L5.1,16.55C.86,20.41.91,22.75.92,27.51H0v1.43H21.61V27.51h-.92c0-4.76.06-7.1-4.18-11L14.2,14.47l2.31-2.08c4.24-3.86,4.19-6.21,4.18-11h.92ZM15.38,11.74l-3,2.72h0l3,2.72c4.06,3.67,3.73,5.62,3.88,10.31H2.35c.15-4.69-.18-6.64,3.88-10.31l2.95-2.72h0L6.23,11.74C2.17,8.06,2.5,6.11,2.35,1.42H19.26C19.11,6.11,19.44,8.06,15.38,11.74Z"/>
    </g>
  </g>
</svg>
