<svg xmlns="http://www.w3.org/2000/svg" viewBox="0 0 36.97 28.93">
  <defs>
    <style>
      .cls-1 {
        fill: #66bbff;
      }
    </style>
  </defs>
  <title>Ресурс 10</title>
  <g id="Слой_2" data-name="Слой 2">
    <g  id="Layer_1" data-name="Layer 1">
      <path  class="cls-1" d="M34,4.18H25.91V2.31A2.3,2.3,0,0,0,23.6,0H13.38a2.31,2.31,0,0,0-2.32,2.31V4.18H2.93A2.93,2.93,0,0,0,0,7.11V26a2.93,2.93,0,0,0,2.93,2.93H34A2.93,2.93,0,0,0,37,26V7.11A2.93,2.93,0,0,0,34,4.18Zm-21.36-1a1.6,1.6,0,0,1,1.6-1.6h8.41a1.6,1.6,0,0,1,1.6,1.6v1H12.68ZM35.36,25.79A1.44,1.44,0,0,1,34,27.32H2.93a1.44,1.44,0,0,1-1.31-1.53V14.72A63.13,63.13,0,0,0,16,17v1.26a1,1,0,0,0,1,1H20a1,1,0,0,0,1-1V17a64.36,64.36,0,0,0,14.42-2.23Zm0-12.61a65.65,65.65,0,0,1-18.22,2.2,65.68,65.68,0,0,1-15.52-2.2V8c0-1.19.59-2.16,1.31-2.16H34c.73,0,1.32,1,1.32,2.16Z"/>
    </g>
  </g>
</svg>
