<svg xmlns="http://www.w3.org/2000/svg" viewBox="0 0 46.01 28.14">
  <defs>
    <style>
      .cls-1 {
        fill: #66bbff;
      }
    </style>
  </defs>
  <title>Ресурс 60</title>
  <g id="Слой_2" data-name="Слой 2">
    <g id="Layer_1" data-name="Layer 1">
      <g>
        <path class="cls-1" d="M30.51,17.15a10.14,10.14,0,0,0,2.68-6.9,10.26,10.26,0,1,0-17.82,6.91A13.28,13.28,0,0,0,9.6,27.55a.57.57,0,0,0,.57.59H35.71a.57.57,0,0,0,.57-.59A13.37,13.37,0,0,0,30.51,17.15ZM14.3,10a8.64,8.64,0,1,1,8.64,8.64A8.66,8.66,0,0,1,14.3,10Zm-3,16.53.33-1.47a10.88,10.88,0,0,1,5-6.84,10.79,10.79,0,0,0,12.68,0,10.93,10.93,0,0,1,4.95,6.84l.33,1.47Z"/>
        <path class="cls-1" d="M41.05,18.69a8.68,8.68,0,0,0,2.31-5.93A8.83,8.83,0,0,0,32.93,4.09a8.48,8.48,0,0,0-1.72.5V6.14a7.22,7.22,0,1,1,1.86,13.48v1.64a8.72,8.72,0,0,0,1.46.12,9.12,9.12,0,0,0,5.33-1.7A9.07,9.07,0,0,1,44,25.32l.27,1.21H28.52v.62H23.11c0,.16,0,.32,0,.49a.49.49,0,0,0,.49.5h22a.49.49,0,0,0,.49-.5A11.48,11.48,0,0,0,41.05,18.69Z"/>
        <path class="cls-1" d="M5,18.69a8.68,8.68,0,0,1-2.31-5.93A8.83,8.83,0,0,1,13.08,4.09a8.48,8.48,0,0,1,1.72.5V6.14a7.22,7.22,0,1,0-1.86,13.48v1.64a8.72,8.72,0,0,1-1.46.12,9.12,9.12,0,0,1-5.33-1.7A9.07,9.07,0,0,0,2,25.32l-.27,1.21H17.49v.62H22.9c0,.16,0,.32,0,.49a.49.49,0,0,1-.49.5H.49a.49.49,0,0,1-.49-.5A11.48,11.48,0,0,1,5,18.69Z"/>
      </g>
    </g>
  </g>
</svg>
