<svg xmlns="http://www.w3.org/2000/svg" viewBox="0 0 29.13 28.94">
  <defs>
    <style>
      .cls-1 {
        fill: #66bbff;
      }
    </style>
  </defs>
  <title>Ресурс 20</title>
  <g id="Слой_2" data-name="Слой 2">
    <g id="Layer_1" data-name="Layer 1">
      <g>
        <g>
          <path class="cls-1" d="M7.2,28.83a.36.36,0,0,1-.2-.06L4.58,27,2.16,28.76a.34.34,0,0,1-.52-.38l.92-2.83L.14,23.8A.33.33,0,0,1,0,23.42a.33.33,0,0,1,.32-.24h3l.93-2.84a.33.33,0,0,1,.32-.24.35.35,0,0,1,.33.24l.92,2.84h3a.35.35,0,0,1,.33.24A.35.35,0,0,1,9,23.8L6.6,25.55l.93,2.83a.37.37,0,0,1-.13.39A.36.36,0,0,1,7.2,28.83ZM4.58,26.24a.36.36,0,0,1,.2.06l1.77,1.29-.68-2.07A.35.35,0,0,1,6,25.14l1.76-1.27H5.58a.33.33,0,0,1-.32-.24l-.68-2.07-.67,2.07a.35.35,0,0,1-.33.24H1.4l1.76,1.27a.35.35,0,0,1,.13.38l-.68,2.07L4.38,26.3A.36.36,0,0,1,4.58,26.24Z"/>
          <path class="cls-1" d="M17.18,28.94a.37.37,0,0,1-.2-.07l-2.42-1.76-2.41,1.75a.35.35,0,0,1-.41,0,.33.33,0,0,1-.12-.38l.92-2.83-2.42-1.74a.33.33,0,0,1-.12-.38.34.34,0,0,1,.33-.24h3l.93-2.84a.33.33,0,0,1,.32-.24.34.34,0,0,1,.33.24l.92,2.84h3a.34.34,0,0,1,.33.24.35.35,0,0,1-.13.38l-2.41,1.74.92,2.84a.33.33,0,0,1-.12.38A.4.4,0,0,1,17.18,28.94Zm-2.62-2.6a.38.38,0,0,1,.21.07l1.76,1.28-.67-2.06a.35.35,0,0,1,.12-.39L17.74,24H15.56a.34.34,0,0,1-.32-.23l-.68-2.08-.67,2.08a.35.35,0,0,1-.33.23H11.39l1.76,1.27a.35.35,0,0,1,.12.39l-.67,2.06,1.76-1.28A.37.37,0,0,1,14.56,26.34Z"/>
          <path class="cls-1" d="M27.17,28.83a.36.36,0,0,1-.2-.06L24.55,27l-2.42,1.76a.33.33,0,0,1-.4,0,.35.35,0,0,1-.13-.38l.92-2.83L20.11,23.8a.35.35,0,0,1-.13-.38.35.35,0,0,1,.33-.24h3l.92-2.84a.35.35,0,0,1,.33-.24.33.33,0,0,1,.32.24l.93,2.84h3a.34.34,0,0,1,.32.24.33.33,0,0,1-.12.38l-2.42,1.75.92,2.83a.35.35,0,0,1-.12.39A.36.36,0,0,1,27.17,28.83Zm-2.62-2.59a.36.36,0,0,1,.2.06l1.76,1.29-.67-2.07a.34.34,0,0,1,.13-.38l1.76-1.27H25.55a.35.35,0,0,1-.33-.24l-.67-2.07-.68,2.07a.34.34,0,0,1-.32.24H21.37l1.76,1.27a.33.33,0,0,1,.12.38l-.67,2.07,1.77-1.29A.36.36,0,0,1,24.55,26.24Z"/>
        </g>
        <path class="cls-1" d="M19.28,10.68A6.3,6.3,0,0,0,21,6.39a6.39,6.39,0,1,0-11.1,4.3,8.28,8.28,0,0,0-3.6,6.48.35.35,0,0,0,.36.36H22.52a.35.35,0,0,0,.36-.36A8.35,8.35,0,0,0,19.28,10.68ZM9.18,6.23a5.39,5.39,0,1,1,5.39,5.38A5.39,5.39,0,0,1,9.18,6.23ZM7.42,16.68l.2-.95a7.08,7.08,0,0,1,3.05-4.45,6.35,6.35,0,0,0,7.8,0,7.13,7.13,0,0,1,3,4.45l.2.95Z"/>
      </g>
    </g>
  </g>
</svg>
