<svg xmlns="http://www.w3.org/2000/svg" viewBox="0 0 42.89 29">
  <title>Коробка</title>
  <g id="Слой_2" data-name="Слой 2">
    <g id="Слой_1-2" data-name="Слой 1">
      <path d="M27,9.7a.39.39,0,0,1-.33-.24L22.51,1.3h14.4a.75.75,0,0,1,.65.45l4,7.92a0,0,0,0,1,0,0ZM5.81,26.94V11h10.1a1.68,1.68,0,0,0,1.49-.95l3.39-6.68V27.69H6.41a.7.7,0,0,1-.6-.75ZM1.31,9.67l4-7.92A.75.75,0,0,1,6,1.3h14.4c-.49,1-3.47,6.84-4.14,8.16h0a.39.39,0,0,1-.33.24H1.3a0,0,0,0,1,0,0Zm41.43-.59-4-7.92A2.05,2.05,0,0,0,36.91,0H6A2.05,2.05,0,0,0,4.17,1.16l-4,7.92A1.34,1.34,0,0,0,.2,10.41a1.21,1.21,0,0,0,1,.59H4.51V26.94A2,2,0,0,0,6.41,29H36.48a2,2,0,0,0,1.9-2.06V20.1a.65.65,0,1,0-1.3,0v6.84a.69.69,0,0,1-.6.75H22.1V3.37l3.39,6.68A1.68,1.68,0,0,0,27,11h10.1v9.2a.65.65,0,1,0,1.3,0V11h3.28a1.21,1.21,0,0,0,1-.59,1.34,1.34,0,0,0,.05-1.33Z"/>
    </g>
  </g>
</svg>
