<svg xmlns="http://www.w3.org/2000/svg" viewBox="0 0 16.39 28.93">
  <title>СММ</title>
  <g id="Слой_2" data-name="Слой 2">
    <g id="Слой_1-2" data-name="Слой 1">
      <g fill="#66bbff">
        <path  d="M14.27,0H2.12A2.12,2.12,0,0,0,0,2.12V26.81a2.12,2.12,0,0,0,2.12,2.12H14.27a2.12,2.12,0,0,0,2.12-2.12V2.12A2.12,2.12,0,0,0,14.27,0ZM1,3.86H15.43V22.18H1ZM2.12,1H14.27a1.16,1.16,0,0,1,1.16,1.15v.77H1V2.12A1.16,1.16,0,0,1,2.12,1ZM14.27,28H2.12A1.16,1.16,0,0,1,1,26.81V23.14H15.43v3.67A1.16,1.16,0,0,1,14.27,28Z"/>
        <path d="M8.2,23.63a1.93,1.93,0,1,0,1.93,1.92A1.92,1.92,0,0,0,8.2,23.63Zm0,2.89a1,1,0,1,1,0-1.93,1,1,0,0,1,0,1.93Z"/>
        <path d="M6.27,2.41H8.2a.49.49,0,0,0,.48-.48.48.48,0,0,0-.48-.48H6.27a.47.47,0,0,0-.48.48.48.48,0,0,0,.48.48Z"/>
        <path d="M9.64,2.41h.49a.49.49,0,0,0,.48-.48.48.48,0,0,0-.48-.48H9.64a.48.48,0,0,0-.48.48.49.49,0,0,0,.48.48Z"/>
        <path d="M9.14,5.31H7.25a1,1,0,0,0-1,1V8.19a1,1,0,0,0,1,1H9.14a1,1,0,0,0,1-1V6.3a1,1,0,0,0-1-1Zm0,2.88H7.23l0-1.91,1.91,0Z"/>
        <path d="M4.8,5.31H2.91a1,1,0,0,0-1,1V8.19a1,1,0,0,0,1,1H4.8a1,1,0,0,0,1-1V6.3a1,1,0,0,0-1-1Zm0,2.88H2.89l0-1.91,1.91,0Z"/>
        <path d="M13.48,5.31H11.59a1,1,0,0,0-1,1V8.19a1,1,0,0,0,1,1h1.89a1,1,0,0,0,1-1V6.3a1,1,0,0,0-1-1Zm0,2.88H11.57l0-1.91,1.91,0Z"/>
        <path d="M9.14,9.64H7.25a1,1,0,0,0-1,1v1.89a1,1,0,0,0,1,1H9.14a1,1,0,0,0,1-1V10.63a1,1,0,0,0-1-1Zm0,2.88,0,0-1.91,0,0-1.91,1.91,0Z"/>
        <path d="M4.8,9.64H2.91a1,1,0,0,0-1,1v1.89a1,1,0,0,0,1,1H4.8a1,1,0,0,0,1-1V10.63a1,1,0,0,0-1-1Zm0,2.88,0,0-1.91,0,0-1.91,1.91,0Z"/>
        <path d="M13.48,9.64H11.59a1,1,0,0,0-1,1v1.89a1,1,0,0,0,1,1h1.89a1,1,0,0,0,1-1V10.63a1,1,0,0,0-1-1Zm0,2.88,0,0-1.91,0,0-1.91,1.91,0Z"/>
        <path d="M9.14,14H7.25a1,1,0,0,0-1,1v1.89a1,1,0,0,0,1,1H9.14a1,1,0,0,0,1-1V15a1,1,0,0,0-1-1Zm0,2.88a0,0,0,0,1,0,0l-1.91,0,0-1.91,1.91,0Z"/>
        <path d="M4.8,14H2.91a1,1,0,0,0-1,1v1.89a1,1,0,0,0,1,1H4.8a1,1,0,0,0,1-1V15a1,1,0,0,0-1-1Zm0,2.88a0,0,0,0,1,0,0l-1.91,0,0-1.91,1.91,0Z"/>
        <path d="M13.48,14H11.59a1,1,0,0,0-1,1v1.89a1,1,0,0,0,1,1h1.89a1,1,0,0,0,1-1V15a1,1,0,0,0-1-1Zm0,2.88a0,0,0,0,1,0,0l-1.91,0,0-1.91,1.91,0Z"/>
      </g>
    </g>
  </g>
</svg>
