<svg xmlns="http://www.w3.org/2000/svg" viewBox="0 0 32.86 29">
  <title>Сайт</title>
  <g id="Слой_2" data-name="Слой 2">
    <g id="Слой_1-2" data-name="Слой 1">
      <g fill="#66bbff">
        <path  d="M29.13,29H3.73A3.74,3.74,0,0,1,0,25.27V3.73A3.73,3.73,0,0,1,3.73,0h25.4a3.73,3.73,0,0,1,3.73,3.73V25.27A3.74,3.74,0,0,1,29.13,29ZM3.73,1.11A2.63,2.63,0,0,0,1.11,3.73V25.27a2.62,2.62,0,0,0,2.62,2.61h25.4a2.62,2.62,0,0,0,2.62-2.61V3.73a2.63,2.63,0,0,0-2.62-2.62Z"/>
        <path d="M27.85,20.51H19.12a.56.56,0,1,1,0-1.11h8.73a.56.56,0,0,1,0,1.11Z"/>
        <path d="M27.85,24.53H19.12a.56.56,0,1,1,0-1.11h8.73a.56.56,0,0,1,0,1.11Z"/>
        <path d="M27.85,12.48H19.12a.56.56,0,1,1,0-1.11h8.73a.56.56,0,0,1,0,1.11Z"/>
        <path d="M27.85,16.5H19.12a.56.56,0,0,1,0-1.12h8.73a.56.56,0,0,1,0,1.12Z"/>
        <path d="M32.31,7.44H.56a.56.56,0,1,1,0-1.11H32.31a.56.56,0,0,1,0,1.11Z"/>
        <path d="M8,5.46A1.73,1.73,0,1,1,9.74,3.73,1.74,1.74,0,0,1,8,5.46ZM8,3.11a.62.62,0,1,0,.62.62A.62.62,0,0,0,8,3.11Z"/>
        <path d="M4,5.46A1.73,1.73,0,1,1,5.74,3.73,1.73,1.73,0,0,1,4,5.46ZM4,3.11A.62.62,0,0,0,4,4.35.62.62,0,0,0,4,3.11Z"/>
        <path d="M12,5.46a1.73,1.73,0,1,1,1.73-1.73A1.74,1.74,0,0,1,12,5.46Zm0-2.35a.62.62,0,0,0,0,1.24.62.62,0,0,0,0-1.24Z"/>
        <path d="M14.92,24.53H4.84A.55.55,0,0,1,4.29,24v-12a.55.55,0,0,1,.55-.55H14.92a.56.56,0,0,1,.56.55V24a.56.56,0,0,1-.56.56ZM5.4,23.42h9V12.48h-9Z"/>
      </g>
    </g>
  </g>
</svg>
