<svg xmlns="http://www.w3.org/2000/svg" viewBox="0 0 29 28.91">
  <title>Дизайн_1</title>
  <g id="Слой_2" data-name="Слой 2">
    <g id="Слой_1-2" data-name="Слой 1">
      <g fill="#66bbff">
        <path  d="M25.07,25h-3.2l3.2-3.2V25Zm.59-4.62a.43.43,0,0,0-.47.09l-4.65,4.65a.43.43,0,0,0-.09.47.42.42,0,0,0,.39.26h4.65a.43.43,0,0,0,.43-.43V20.81a.42.42,0,0,0-.26-.39Z"/>
        <path d="M28.73,13.6a.41.41,0,0,0-.46.09L27,15V6.3a.43.43,0,0,0-.43-.43H23.3l1.19-1.18,1.14-1.15A1.26,1.26,0,0,0,26,2.62a1.25,1.25,0,0,0-.38-.91L24.31.38a1.3,1.3,0,0,0-1.84,0L21.33,1.53,20,2.91l-3,3H3.77V1.66a.42.42,0,0,0-.42-.42A3.35,3.35,0,0,0,0,4.58V22.66a.28.28,0,0,0,0,.09,3.19,3.19,0,0,0,1,2.06,3.15,3.15,0,0,0,2.25.92h13l-2.45,2.45a.41.41,0,0,0-.09.46.42.42,0,0,0,.39.27H28.57a.43.43,0,0,0,.43-.43V14A.42.42,0,0,0,28.73,13.6ZM23.08,1a.43.43,0,0,1,.63,0L25,2.31a.45.45,0,0,1,0,.63l-.84.84-2-1.95ZM21.63,2.43l1.95,2-.78.78-1.95-2ZM17.46,6.6l2.79-2.79,1.95,2-8.81,8.81-2-2,3.77-3.77ZM12.61,15l-1.22.43-.81-.81L11,13.4ZM.85,4.58A2.51,2.51,0,0,1,2.92,2.12V19.34A3.34,3.34,0,0,0,1,20.26l-.16.17Zm2.38,20.3a2.37,2.37,0,0,1-2.38-2.3c0-.08,0-.16,0-.24s0-.07,0-.11h0a.44.44,0,0,0,0-.1s0,0,0,0,0-.06,0-.08S1,22,1,22a.14.14,0,0,0,0-.06.19.19,0,0,0,0-.07s0,0,0,0l0-.08a0,0,0,0,0,0,0l.05-.1a2.49,2.49,0,0,1,1.74-1.36h.51a.42.42,0,0,0,.42-.42v-13H16.13l-.45.46L14.61,8.25l-4.08,4.07,0,0h0a0,0,0,0,1,0,0v0l0,0v0h0L9.6,14.83,9,16.43s0,.05,0,.07H7.61a.43.43,0,1,0,0,.85H19.39a.43.43,0,1,0,0-.85H10.94l2.59-.92h.05l0,0h0l0,0h0l0,0,8.76-8.76h3.69v9.1l-9.06,9.06Zm24.92-6.11h-.79a.43.43,0,1,0,0,.85h.79v1.29h-.79a.43.43,0,1,0,0,.85h.79V23h-.79a.43.43,0,1,0,0,.85h.79v1.28h-.79a.43.43,0,0,0-.43.43.44.44,0,0,0,.43.43h.79v2h-13l5.82-5.81L28.15,15Z"/>
      </g>
    </g>
  </g>
</svg>
